<svg xmlns="http://www.w3.org/2000/svg" viewBox="0 0 500 500"><path fill="#f5da55" d="M0 0H500V500H0z"/><path d="M405.6 176.3c-1 4.8-2.7 8.3-5 10.7l-1.6-1c1.8-4.5 2.6-7.1 2.5-7.8l-.5-.7c-.6.1-1.4 1.6-2.4 4.8l-.8.1c-.1-.6-.2-1-.5-1.5l-.4.1c-7.7 21.5-11.2 31.5-18.3 48-1.3 4.2-2.4 6.6-3.4 7.1.1.5.3.7.8.7.2 2.1-.3 4.1-1.4 6.1-3.3 9.5-5.5 14.7-6.6 15.6l.7 4.5c.1.5-.2.8-.7.8l-.8.1c-.1-1.2-.6-1.8-1.4-1.8l-.4.1c-1 1.6-1.8 3.4-2.3 5.5l.8-.1c1-.7 1.5-1.4 1.4-2.4l1.6-.1.8.3c-.7 1.1-1 2-1 2.7l.4.7-1 2.4.1.4c.9-.1 1.9.2 2.9.8.7-.1 1.5-.4 2.4-.9.9-.1 4.2-.1 9.9-.1l2.9-1c3.5-.1 4.1.1 7.1-.2l1.2-.1.7-.5.1.4c3.1-.3 3.4-.1 5.9.3l.1.4-1.8.1.1.7c.5-.1 1-.2 1.4-.5.5-.1.7.2.8.7-.7.1-1.5.3-2.4.5l-.8-.3c-1.2.3-1 .4-1.8.5l-1.2-.3c0 .2-.1.3-.3.4.1.5.3.7.7.7l1.5-.1-.7-.3c0 .2.1.3.4.3l6.5-.6 2.5-.5c0 .2.1.3.3.3l1.2-.5 2.2-.2c1.8-.1 1.7-.3 5.4-.8 0-.2.1-.3.3-.3v.3c7.1-1.2 6.5-1.1 8-1.6l-.3-.8c-2 .5-2 .2-3 .3l-5.4.3-.1-.4 3-.4 1.1-.1.6-.5.1.4c4.2-.4 5.8.7 25.6-3.5 1-.1 1-1 1.6-2.8-.4 0-.7-.1-1-.3-1.6.7-2.5.3-5.6.8-.3 0-.5-.2-.6-.7v-.3l3 .1c.5-.1 1.7-.1 3.3-1 .3.2-.3.4.1.3l.5-.1c.3 0 .5-.3.5-.8l-.3-.7c-2 .2-3 .3-4.6 1.2l-.1-.4-2.5.3c-.1-.8-.3-1.1-.6-1.1l-1.3.1c-1.5.1-2.2.1-2.9.7 0-.3-.1-.4-.3-.4l-1.4.1-.8.5c0-.3-.1-.4-.3-.4l-.5.5-.1-.4-2-.1-.5.1.1.7 1 .3.9-.1c.3.2.7.3 1.1.3l.8-.4v.3c-4.6 1.2-4.6.9-7.8 1.5-.4-.3-.7-.3-.8-.3-.3.3.4.1.2.1-.5.1-.8-.2-.8-.7l1.6-.2c.1 0 .2.1 1.1.3 1.3-.7 1.4-.9 2.1-1l-.1-.7c-4.6.9-2.7.3-8.5.8h-.3l-.1-.7c7.4-.9 4.9-.4 7.4-1.1 0 .3.1.4.3.4.3-.3.7-.5 1-.5l.5-.1c2.5-.2 3.5.3 8.6-1.1v.3l.8-.4.8-.1c-.1-.8 1.1-.8 1.4-.9l-.1-.8c-9 1.8-11.3 1.3-13.8 2v-.3c-2.4.5-2.4.2-3 .3-.2 0-.5.2-.7.5 0-.3-.1-.4-.3-.4-.4 0-.2.1-.5.5l.5-.5-7.8 1.2c0-.2-.1-.3-.3-.3-3.9.8-2.9 1-8.2 1.4-.3 0-.6.1-1 .4 0-.2-.1-.3-.4-.3l-3.3.3-2.2.5c0-.2-.1-.3-.4-.3-1.2.3-2.3.5-3.1.6h-.1c-.5.1.3-.1-.1-.3l-.7.4c-1 .1-.5-.1-3.7 0-5.8.7-5.1.8-5.8.8l-2.2-.1c0 .2-.1.3-.3.4-2.4-.3-3.7-.7-3.7-1.2.3-2.3.8-3.5 1.7-3.6l.4-.1-.4.8.4-.1c.8-.4 1.1-.8 1.1-1.2l-.1-.8-.8.1-.1-.7c-.1-.6 0-1 .2-1.5l1.8-2.8.1.7.8-.1-.1-.7-.5-.7c.6-.5 1.1-.8 1.5-.8l-.1-.4-1.1.1-.1-1.1c2.2-4.7 3.3-7.4 3.3-8.2l.8.3c.5-.1.8-.3.7-.8l-.8.1v-.3c-.1-.6.1-1.1.3-1.6 1.2-1.2 1.8-2.5 1.6-3.9.3 0 .4.1.4.4 1-.6 1.8-2.2 2.4-4.8 1.8-3.3 4.4-10 7.8-19.9 6.5-17.6 6.3-19.5 7.2-23.6l-.8.1c.1.5-.1 1-.3 1.5-.5-.2-1-.3-1.2-.3v-.3c-.1-1.5.5-3.3 2-5.5h.3l.7 2.5.8-.1c0-.2.2-1.2.6-3.1-.1-.4-.3-.6-.9-.7l-.7.5c-.1-.5 0-1.9.1-4.2L405.6 176.3zM396.1 187.6l.4-.1c-.6 1-1 1.6-1.5 1.7l-.1-1.1C395.3 188.1 395.7 188 396.1 187.6L396.1 187.6zM392.9 195.5c.8-3.2 1.6-5 2.3-5.5l.1.4c-.4 3-1 4.5-2 4.6l.1 1.9c-.7 1-1 1.8-1 2.4l-.4.1-.2-2.6C392.2 196.7 392.6 196.3 392.9 195.5L392.9 195.5zM391.6 199.7c.1.5-.3 1.5-.8 3.1l-.4.1-.1-1.1C390.8 200.5 391.2 199.8 391.6 199.7L391.6 199.7zM370.1 247.2l.4.7c.6-.1.8-.3.8-.8l-.1-.4-.4.1L370.1 247.2zM380.5 255.8v.3c.6-.1 1.2-1.1 1.7-3.1l-.8-.3C380.7 254.5 380.5 255.5 380.5 255.8L380.5 255.8zM446.6 258.1v.3l-.7.8 1.2-.5h.1l-.1-.7H447l-.5.4c0-.2 1.4-.6.3-.8C446.7 258 447.2 258 446.6 258.1L446.6 258.1zM449.1 260.4l1.8-.1c-.1-.5-1.2-.6-1.6-.6h-.3L449.1 260.4zM417.9 261.1l.5.7c0-.2.1-.3.3-.3l.4.7-1.6-.2C417.3 261.4 417.5 261.2 417.9 261.1L417.9 261.1zM412.5 261.7c.6-.1 1 .3 1 .8h-1.8v-.3C411.9 262.1 412.2 262 412.5 261.7L412.5 261.7zM416.7 261.5l.1.4-1.5.1-.1-.4L416.7 261.5zM401.6 263.1c0 .2.1.3.4.3 2.4-.5 2.2-.5 3.3-.7.4-.1.6.2.7.7l-6.7.6.7.3-.1-.4-2.5.2-.1-.4 2.3-.2L401.6 263.1zM408.5 262.5v.3c-.2 0 .7.1.3.4-1.4-.1-1.5-.3-2.5-.2v-.3L408.5 262.5zM410.2 262.3v.3l-1.2.1v-.3L410.2 262.3zM368.4 268.9l.1 1.1c-.4.1-.7-.2-.8-.7V269L368.4 268.9zM424.3 268l.1.7 1.3-.1-.5-.3.1.4 1.3-.5c9-1 10-.6 9.9-1.6v-.3C427.4 268.2 426.2 267.8 424.3 268L424.3 268zM438.3 266.7l1.3.3-.1-.7-1.3-.3L438.3 266.7zM399.6 269.3c.4.2-.5.4.1.3l4.6-.4.1.4c-1.3.1-2.2.3-2.4.6 0-.3-.1-.4-.4-.4l-2 .2-.1-.4C400 269.5 399.2 269.5 399.6 269.3L399.6 269.3zM420.8 268.7l.4.7c1.5-.3.7-.3 1-.6 0 .3.1.4.3.4l1-.1-.1-.8-2.7-.1L420.8 268.7zM394.9 271.6h-.3l-.1-.7h.3L394.9 271.6zM374.5 274l.1.4 12-1-.1-.7-9.6.8-2-.3L374.5 274zM387.8 273.3h.1l-.1-.7h-.1L387.8 273.3zM204.9 210.2c-8.5 10.1-12.9 15.7-13.2 16.8-3.5 3.6-5.2 5.8-5 6.5-.9.6-1.3 1.2-1.2 1.8-.3.1-.5-.1-.5-.3-1.5 2.4-3.7 3.9-6.6 4.6l-3.1.7c-.4.1-.6.4-.6.9l.1.4 1.2-.3.1.3-2.6 1-4.6 1-2.4.1c-.3.3 1.9-.1 1 .2l-3 .7c-1.8.5-2.9.3-3-.5l-.3.1c.2.7 0 1.2-.5 1.3l.6-.1-.3-1.1-5.5 1.3.6.3c-.1-.3-.3-.3-.8-.2l-.7.6-.8-.2c-.8.5-1.3.7-1.4.7l-.8-.2c-2.3 1.3-.6 1.3-.7 1.3l.2.7 1.3-.3 2-.1-.2.8c-7.4 2-2 .8-4.1 1.3l-.4.1.2.7 1.2-.3.1.4c-1.5.3-2.4.7-2.6 1l-.1-.4c-2 .5-3.9 2-5.9 4.4.3 1.4-3.9 3.2 16.1-1.4 1.4-.1 2.2-.1 2.4-.1-.1-.3.1-.4.3-.5 2.2-.3 1.2.1 2.5-.2l4.3-1-.9.5c-.1-.2.1-.3.3-.4.5.1 1 .1 1.6-.1l.3 1.1-17.1 27.1-3.8 4.7-1.8 6.2.3-.1 1.8-.8-.6 2.4.2.7.5.7c-.3.1-.3.2-.3.5l.1.4.8-.2c1.1-1 1.6-1.9 1.4-2.7 1.2.2 2 .3 2.4.2l.1.4c-.7.2-1.1.8-1.2 1.8l.1.4.4-.1c6.2-6.7 21.3-29.8 33.5-45.5-.4-1.7 5.9-4.1 19-7.1l.4-.1c.5 2-.5 7-3 14.9-1.6 4.8-2.4 7.4-2.3 7.8-2.1 6.3-3.1 9.7-2.9 10.3l-4.6 15.2c-3 7.8-5.3 15.9-6.9 24.6.3-.1.7 0 1.2.1l.7-.6c.1.3.2.3.5.3l-.3-1.1 2-.1c.6-.1 1.1-.9 1.5-2.3-.1-2 .3-3.1 1.2-3.4 1.2-4.8 2-7.3 2.3-7.4 1.2-4.8 2-7.6 2.6-8.3 1.8-6.3 3-9.5 3.9-9.7l.2.8-1.2 3.3c-2.2 9.9-4.5 17.7-6.8 23.5l.7 2.9.4-.1c5.6-11.9 13.5-35.4 23.9-70.6.3-3.1 1.8-5.5 4.4-7.2l-.6-.6-.1-.3c1.2-.3 2-.7 2.5-1.4-.1-.3-1.1-.7-3.1-1.2l6.1-26.3c1.8-7.8 3.1-14.7 3.7-20.7l-.1-.4c-1.2-.8-2.5-1.9-3.6-3.3 0-.9 0-1.4 0-1.6l-.1-.3-.3.1C223.6 185.9 216.1 195.9 204.9 210.2L204.9 210.2zM213.6 216.1c.3 1.4-.2 3.9-1.5 7.6-.4 4.7-2.1 7.4-5 8.1l-.1-.4-2.6 1-1.2.3c-.6.1-1.1.1-1.6-.1l-.3-1c-.1-.4 3.7-5.6 11.4-15.6L213.6 216.1zM207.6 232.5l.8-.2.2.7c-4.1 1.2-6.4 1.9-6.9 2-.3.1-.7.3-1.1.7-.1-.3-.6-.3-1.6-.1C198.8 234.9 201.7 233.8 207.6 232.5L207.6 232.5zM167 243.5l.9-.2-.2-.8-.9.2L167 243.5zM178.9 240.3l.2.7-2 .1-.1-.4L178.9 240.3zM156.1 247.8l.1.4-1.2.3-.1-.4L156.1 247.8zM153.8 252.6l.1.3-1.5.3-.2-.7L153.8 252.6zM157.4 251.8l.1.3-2.7.7-.1-.3L157.4 251.8zM162.1 251l.1.4-7.2 1.6-.2-.7C159 251.6 158.5 251.9 162.1 251L162.1 251zM198.1 242.7l.6.7c-.8.2-1.5.5-1.8.8l-.8-.1c-1.3.5-2.5.9-3.4 1.1l-.8.2c-.5.1-.8-.1-1-.5l5.4-1.2L198.1 242.7zM202 241.8l3.9-.9.1.4c-2.1.5-3.7 1-4.9 1.6l-.1-.4C201.3 242.4 201.6 242.1 202 241.8L202 241.8zM161.5 252.8l1.8-.4.2.7c-.8.2-.2.2-1.2.7-1.9.2-1.5-.1-4.5.7l-.1-.4L161.5 252.8zM166.5 252c.5-.1.8.1.9.6l-1.1.3c-.5.1-.8-.1-1-.6L166.5 252zM146 293.2l.1.4c.5-.1.7-.4.6-.9l-.1-.4C146.1 292.5 145.9 292.7 146 293.2L146 293.2zM147.6 299.8c.1.5.4.7.9.5.5-.1.7-.4.6-.9L149 299l-.8.2L147.6 299.8zM189.3 311c.5-.1.8.1.9.5l.1.4-1.5.3c.1-.5.1-.9.1-1.2L189.3 311z"/><path d="M249.8 190.1c-3.4 2.4-7.3 4.9-11.6 7.3l.1.7c.3 0 .7-.2 1.2-.5.5-.1.8.2.8.7l.7-.4h.3v.3c.1.4-2.7 2.5-8 6.3l.4.8h-.3l-.8-.3c0 .3-.3.5-1.1.5v.3l.8 1c-.3 0-.7-.1-1.2-.3-1.8.1-3.5 1.4-5.2 3.8l.4.7c1.5-1.4 2.4-2.1 2.6-2.1l.1 1.1c-.3 0-.7.2-1.2.5l1 1.4c1.8-2 3.7-3.6 5.8-5 1 .3 1.6.7 1.6 1l.8-.1c5.9-4.3 11.6-7.4 17.3-9.3l.1.7c-1 1.6-1.8 2.4-2.2 2.4.1.5.2 1 .5 1.4.1 1-2.5 7.5-7.7 19.6-12 28-22 48.8-30.1 62.3 0 .3.2.7.5 1.1 2-.5 3.3-1 3.8-1.4h.3l.1.7.8-.1.7-.4c0 .2.3.3.8.3l.1.8c.1.7-.4 1.8-1.2 3.4-.8.9-1.8 2.9-2.7 5.8l.1.4.8-.1c3.3-3.7 5.7-7.2 7.4-10.7 9.5-2.8 16.7-5.5 21.7-8.2 5.1-.5 8.9-1.8 11.5-3.9l-.1-.4-2 .6-.4.1-.1-.4c3.7-.5 6.3-1.4 7.6-2.5 7.2-5.6 12.6-9.5 16.3-11.8 11.4-8.4 16.7-16.3 16.1-24-.1-.8-2.5-3.9-7.5-9.4-.1-1 1.6-2.5 5.1-4.5l9.9-8.6c2.2-2.8 3.5-7.4 3.9-13.7l-.1-1.4c-.4-4.4-3.6-7.9-9.6-10.7-3.6-2.4-10-3.7-19.2-4C272.1 182.6 262.1 185.3 249.8 190.1L249.8 190.1zM303 190.7l-.4.8-11-4.6C299 187.1 302.8 188.4 303 190.7L303 190.7zM258.4 221.2c.8-4.1 1.6-6.4 2.5-6.9l8.3-18.6c-.1-1.1 1.6-2 5.2-2.7l1.2-.1.1 1.1c3.5-.6 5.7-.9 6.6-1 6.5-.6 9.9.8 10.2 3.9l.8-.1-.1-1.8.8-.1c1.9 1 2.9 2.3 3 3.8.1 1-.5 2.4-1.6 3.9-.5.1-.8-.3-.8-1l-.8.1-.3 2.2c-3.3 5-5.7 7.6-7.2 7.7-1.3 1.8-2.2 2.7-2.5 2.7-1 1.2-3.9 3.4-8.5 6.3-1.6.1-7.3 2.4-17.1 6.7-.5-.2-1-.3-1.6-.2l-.1-.7C256.4 225.2 257 223.5 258.4 221.2L258.4 221.2zM304 198.4l.1.8c-.4 0-1.1-1.2-2.3-3.5l-.1-.7C302.4 194.8 303.2 196 304 198.4L304 198.4zM231.6 207.3l.1.4c-.3 0-.7.2-1.2.5h-.3l-.1-.7L231.6 207.3zM255.6 206.7l.1 1.1c-.4 0-.8.6-1.4 1.6l-.1-.7c.7-.8 1-1.5 1-2C255.1 206.7 255.6 206.7 255.6 206.7zM251.9 214.4l.1 1.4-.4.1-.1-1.4L251.9 214.4zM250.9 217.1c-.1 1.2-.4 1.9-1 2l-.4.1c.5-.8.7-1.5.6-2L250.9 217.1zM249.2 220.9l.1.4-.7 1.2-.8.1-.1-.4c.8-.1 1.2-.5 1.1-1.2H249.2zM247.6 224.4l-.3 1.9H247l-.1-1.9H247.6zM287.9 225.7l1.6 1c.1.5-.2.8-.7.8-.7-.5-1.2-.7-1.6-.6v-1.1L287.9 225.7zM256.4 229.9l.1.7-1.6.1-.1-.7L256.4 229.9zM281.8 232.6c1.1.5 1.6 1 1.7 1.4v.3c-1 .1-2-.5-2.9-1.6L281.8 232.6zM249.1 240.6c4.4-.4 11.4-2.5 21-6.3l2.4-.2c4.8-.4 8.4.5 10.8 2.8l.1 1.4c-1.8 5.1-3.7 8.1-5.9 9l-9.9 8c-7.4 4.8-11.4 7.3-12 7.3-11.8 6.5-19.1 9.8-22 10.1l-.4.1C233.6 271.5 238.9 260.8 249.1 240.6L249.1 240.6zM259.7 236.4l.1.4-1.6.1-.1-.4L259.7 236.4zM295.3 234.8l.3 3c-.4.7-.7 1.1-1.1 1.2l-.5-5.1C294.9 234.1 295.3 234.4 295.3 234.8L295.3 234.8zM235 260.4c-.5 2.5-1 3.8-1.6 3.8v-.3C233.2 262.7 233.8 261.5 235 260.4L235 260.4zM244.9 274.4c2.9-.5 10.8-4.6 23.7-12.4l.1.7c0 .3-1 1.3-3.3 2.9-6.5 3.3-10.5 5.4-11.6 6.5-7.1 2.5-10.7 4.1-10.6 4.6-6.3 2.5-10.5 4.3-12.5 5.5-.5.1-1.2-.1-2-.6-.1-1.3.5-2.3 1.7-3.1 1.1-.1 2.2.1 3.1.5 1.2-.6 3.2-1.2 6.1-2l-.1-.7-2.4.2c.3-.5 2.5-1.5 6.8-3.2l1.2-.1v.3c-2 .2-3.1.8-3.4 1.8.1.5.3.7.8.7C244.2 275.1 244.9 274.6 244.9 274.4L244.9 274.4zM232.6 265.4v.3c.1.5-.2.8-.7.8l-.1-.4C231.9 265.9 232.1 265.5 232.6 265.4L232.6 265.4zM251.2 270.5c-.9.1-2.7.8-5.3 2.3l-.4.1-.1-.7c1.9-.2 3.6-.9 4.9-2.2C250.9 269.9 251.1 270.1 251.2 270.5L251.2 270.5zM232 275.9l1.2-.1.1.4c-.3 0-.7.2-1.2.5l-.8.1C231.2 276.3 231.5 276 232 275.9L232 275.9zM224.1 280.2l.8.3c-.3 2.3-1 3.5-2 3.5-.9-.4-1.7-.6-2.4-.5l-.1-1.1c-.1-.4.2-.7.7-.8.5-.1.8.3.8 1C223.2 281.1 224 280.2 224.1 280.2L224.1 280.2zM95.9 186.9c-4.4 3.3-9.5 6.5-15.2 9.6l.1 1c.4 0 .8-.3 1.5-.6.7-.1 1 .2 1 .8l1-.6.5-.1.1.5c.1.5-3.5 3.3-10.7 8.3l.6.9-.5.1-1.1-.4c0 .3-.5.5-1.5.6l.1.5 1.2 1.3c-.4 0-.9-.1-1.6-.3-2.3.2-4.6 1.9-6.8 5l.6.9c2-1.8 3.1-2.7 3.4-2.7l.1 1.4c-.3 0-.8.3-1.5.6l1.2 1.8c2.4-2.5 4.9-4.7 7.8-6.5 1.4.4 2.2.8 2.2 1.3l1-.1c7.6-5.7 15.2-9.7 22.7-12.3l.1 1c-1.4 2.1-2.4 3.1-2.9 3.2.1.7.3 1.3.7 1.9.1 1.3-3.3 9.9-10.2 25.8-15.8 37-29 64.3-39.7 82.1 0 .3.3.8.6 1.4 2.6-.7 4.3-1.2 5-1.9l.6-.1.1 1 1-.1 1-.6c0 .3.4.5 1 .4l.1 1c.1 1-.5 2.5-1.7 4.5-1.1 1.2-2.2 3.8-3.5 7.6l.1.5 1-.1c4.2-4.8 7.5-9.5 9.7-14 12.5-3.7 22-7.3 28.6-10.8 6.6-.6 11.7-2.3 15.1-5.2l-.1-.5-2.5.7-.6.1-.1-.5c4.8-.7 8.2-1.8 10.1-3.3 9.5-7.3 16.6-12.5 21.4-15.6 15-11 22-21.6 21.2-31.6-.1-1-3.4-5.2-9.9-12.4-.1-1.4 2.2-3.3 6.7-5.9l13-11.4c2.9-3.7 4.6-9.7 5.2-18l-.2-2c-.5-5.8-4.7-10.5-12.7-14.1-4.7-3.2-13.1-4.9-25.3-5.1C125.3 177.1 112.1 180.6 95.9 186.9L95.9 186.9zM166 187.7l-.4 1-14.5-6.1C160.8 183 165.7 184.7 166 187.7L166 187.7zM107.3 228c1-5.4 2.1-8.4 3.3-9.1l10.8-24.4c-.1-1.5 2.2-2.7 6.9-3.5l1.6-.1.1 1.4c4.7-.7 7.6-1.1 8.7-1.2 8.6-.7 13.1 1 13.5 5.2l1-.1-.2-2.5 1-.1c2.5 1.4 3.9 3.1 4.1 5.1.1 1.4-.6 3.1-2.2 5.1-.7.1-1-.4-1.1-1.4l-1 .1-.3 2.9c-4.4 6.5-7.5 9.9-9.5 10.1-1.8 2.4-2.9 3.7-3.3 3.7-1.4 1.6-5.1 4.4-11.2 8.4-2 .2-9.5 3.1-22.5 8.8-.7-.3-1.3-.4-2.1-.3l-.1-.9C104.6 233.2 105.4 230.8 107.3 228L107.3 228zM167.4 197.9l.1.9c-.5.1-1.5-1.5-2.9-4.6l-.1-.9C165.3 193.1 166.3 194.7 167.4 197.9L167.4 197.9zM72 209.5L72 210c-.3 0-.8.3-1.5.6l-.5.1-.1-.9L72 209.5zM103.5 208.8l.1 1.4c-.5.1-1.1.7-1.9 2.1l-.1-1c.9-1.1 1.4-2 1.4-2.5H103.5zM98.7 218.9l.2 2-.5.1-.2-2L98.7 218.9zM97.4 222.5c-.1 1.6-.5 2.5-1.4 2.5l-.5.1c.6-1.1.9-1.9.8-2.5L97.4 222.5zM95.3 227.6l.1.5-.9 1.6-1 .1-.1-.5c1-.1 1.4-.6 1.4-1.6L95.3 227.6zM93.1 232.2l-.3 2.4-.5.1-.2-2.4L93.1 232.2zM146.1 233.9l2.2 1.3c.1.7-.3 1-.9 1.1-.9-.6-1.6-.8-2.2-.8L145 234 146.1 233.9zM104.6 239.5l.1.9-2 .2-.1-.9L104.6 239.5zM138 242.9c1.4.7 2.2 1.3 2.2 1.8l.1.5c-1.4.1-2.6-.6-3.8-2.2L138 242.9zM94.9 253.5c5.9-.5 15.2-3.3 27.8-8.2l3.1-.3c6.4-.5 11.2.7 14.3 3.7l.2 2c-2.4 6.8-5 10.7-7.8 12l-13.1 10.4c-9.7 6.4-15 9.6-15.7 9.7-15.5 8.6-25.2 12.9-28.9 13.3l-.6.1C74.7 294.1 81.6 280 94.9 253.5L94.9 253.5zM109 247.9l.1.5-2.1.2-.1-.5L109 247.9zM155.9 245.8l.3 3.9c-.5 1-.9 1.6-1.4 1.6l-.6-6.8C155.3 244.9 155.9 245.4 155.9 245.8L155.9 245.8zM76.4 279.5c-.7 3.3-1.4 5-2.1 5.1l-.1-.5C74.1 282.5 74.8 281 76.4 279.5L76.4 279.5zM89.5 298c3.8-.7 14.2-6.2 31.2-16.3l.1.9c.1.4-1.4 1.6-4.4 3.8-8.7 4.2-13.8 7.2-15.3 8.7-9.4 3.3-14 5.3-14 6.1-8.4 3.3-13.9 5.8-16.5 7.3-.6.1-1.5-.2-2.7-.7-.1-1.7.6-3.1 2.3-4.2 1.4-.1 2.9.1 4.2.7 1.6-.8 4.2-1.7 8.1-2.6l-.1-1-3.1.3c.4-.5 3.3-1.9 9-4.2l1.6-.1.1.5c-2.6.2-4.1 1-4.4 2.4.1.6.4.9 1 .8C88.5 298.9 89.5 298.2 89.5 298L89.5 298zM73.4 286.1l.1.5c.1.7-.3 1-.9 1.1l-.1-.5C72.4 286.6 72.7 286.3 73.4 286.1L73.4 286.1zM97.8 292.8c-1.2.1-3.5 1.1-7 3.1l-.5.1-.1-1c2.5-.2 4.6-1.2 6.4-2.9C97.4 291.9 97.8 292.2 97.8 292.8L97.8 292.8zM72.5 299.8l1.6-.1.1.5c-.4 0-.8.3-1.5.6l-1 .1C71.6 300.4 71.8 300 72.5 299.8L72.5 299.8zM62.1 305.7l1.1.5c-.4 2.9-1.2 4.4-2.7 4.6-1.2-.5-2.2-.7-3.2-.7l-.1-1.4c-.1-.6.3-.9 1-1.1.7-.1 1 .4 1.1 1.4C61 306.7 62 305.7 62.1 305.7L62.1 305.7zM352 177.3l-.8-.3-13.9 2.2c-.5-.3-1.2-.4-1.9-.3-.8.1-2 .3-3.7.8l-6.7 2.8.5.8c.3 0 .8-.2 1.4-.5l2.4.2-.3 2.2c-2.2 1-3.5 2.4-3.8 4.3-3.3 1.4-4.9 2.5-4.9 3.1l.1.4.5-.1.9-.5 1 1.2.1 1.7c.1.5-5.5 12.2-16.6 35-9.6 22-14.6 34-15.2 36.1-3.3.9-5.2 2.3-5.8 4.1.1.6 1 .9 2.9 1.1l.1.8-.8 1.4.1 1.7c.1.9 2.5 1.6 7.2 2.1 0-.3.1-.5.5-.5.1 1-.2 3.1-.9 6.3l.5-.1c2-2.7 2.9-4.5 2.8-5.6l.4-.1c.5-.1 1 .5 1.6 1.7-.6.3-2.7 5-6.2 14.2l.5.8.5-.1c4.4-11 7.1-17.2 8.2-18.4 5.8-.5 15.6-1.5 29.7-3l.8-.5c0 .3.2.5.5.4l.9-.1.8-.5c0 .3.2.5.5.4l10.7-.9c2.8-.3 4.2-1.1 4.1-2.5-.1-.4 1.6-.8 5-1.3.3 0 .8.1 1.4.3 0-.3 1.6-.5 5-.8.1-1.8.7-2.7 1.7-2.8l-.1-.8c-.9.1-2 .3-3.3.7-2.2-.1-3.7-.3-4.2-.5-.6.3-1 .5-1.4.5l-7.4.3-.9.5c0-.3-.2-.4-.5-.3l-.4.1-1 .5c0-.3-.8-.5-2.4-.7l-.9.5-1.8.1-.1-.5c9.5-1 14.3-2.4 14.2-3.9.6-.1.9.3 1 .8l2.8-.7-.1-.8-22.9.7c0 .3-.1.5-.5.5l-2.8-.3c-.7.1-1.3.3-1.8.7l-1-.4c-2.9.3-5 .6-6.5 1-2-.1-4.1-.1-6.5.1l-5.2.5-2.4-.3c-.1-1.5 2.8-9 8.9-22.3 1.8-4.5 3.4-7.3 4.9-8.4.3 0 .8.1 1.4.3l3.7-1.2 1.9.3c3.1-.3 6.8-1.2 11-2.7 1-.1 1.8 0 2.4.2l2.8-.7 8.3-.7c3.5-.3 7.4-1.1 11.5-2.4l-.1-.8c-1.6.1-2.4-.1-2.4-.7-.1-1.2-1.2-1.6-3.4-1.4l-.1-.8 2.3-.7 6-.5-.1-.8c-.3 0-1.4 0-3.7-.1l-.1-.9 2.4-.2c.6-.1.9-.4.8-.9-3.1.1-4.7-.1-4.7-.5-21.8 1-32.6 1.2-32.7.6-.3 0-.8.2-1.4.6l-.6-.9c5.8-12.2 9.1-18.4 10.1-18.5.1.5-.2 1.2-.7 2.3l.1.4.9-.1c2.3-5.5 4.2-8.3 5.8-8.4 6.8-.6-1-1 13.7-3.3.6.3 1 .4 1.3.3 5.8-1.2 13.7-2.4 24-3.6l-.1-.8-5.5.5-.1-.8c.7-.1 1.2-.3 1.6-.7l.1.5c.3 0 .7-.2 1.2-.6.9-.1 1.6 0 2.2.3 1.9-.5 3.4-.8 4.6-.9l3.4-.3c.8-.5 1.2-1 1.2-1.4v-.4c-.8.1-1.8 0-3-.2-.1-.5.2-.8.8-.9l6.3-.6 2.9-.7c0 .3.2.5.4.5.3 0 .7-.2 1.2-.6 1.5.2 2.4.3 2.6.2 1.2-1.1 2.5-2 4.1-2.6-.7-.7-1-1.2-1-1.6l-4.2.4c0-.3-.2-.7-.5-1.3 0-.4.9-.8 2.9-1.2l.8.3.8-.5c0 .3.2.4.5.3l.8-.5c0 .3.2.4.5.3l.4-.1-.1-.8c-.6.1-2.2.1-4.6 0l-.8.5-.1-.5c-19.9 1.6-31.2 2.5-33.9 2.8-.3 0-1.8 0-4.2-.1 0 .3-.3.5-.8.5l-.8-.4-2.9.7c-.7.1-1.8 0-3.5-.1-.5.3-1 .6-1.6.7s15.8-.9 15.3-1.2l-2.5.7-.4.1c-1 .1-2.4.1-3.9-.1-.5.3-1.1.6-2.1.7-.7.1-1.2-.1-1.7-.3C357.6 176.1 355.5 176.6 352 177.3L352 177.3zM353 179.9c0 .3.3.5.8.4l.1.8-.8.1c-.7.1-1.2-.1-1.7-.3-.5.4-1 .6-1.6.7h.3l-2.4-.3-.1-.4C350.5 180.7 351.4 180.3 353 179.9L353 179.9zM355.2 179.7l.5-.1.1.8-1.3.1C354.4 180.1 354.6 179.8 355.2 179.7L355.2 179.7zM360.2 179.2l.1.5c-1 .1-2.2.3-3.7.8l-.5.1.4-.9L360.2 179.2zM323.1 183.4l1.4-.1-.1-.8-1.4.1L323.1 183.4zM333.3 182.5l.5-.1 1 .4c.1.6-.3.9-.8.9l-1.4.1-.1-.5C332.4 182.9 332.8 182.7 333.3 182.5L333.3 182.5zM366.2 184.4v.4l-2.9.3v-.4L366.2 184.4zM357.8 185.6l.1.5-1.7.1-.1-.5L357.8 185.6zM365.9 186.3l5.9-1 3 .1.1.5c-1.4.1-2.7.4-3.7.8 0-.3-.6-.6-1.8-.7l-4.6 1.3c-.9-.5-1.4-.9-1.4-1.2L365.9 186.3zM360.1 187.6c.6-.1.8.2.9.8l-2.5.3-.1-.8L360.1 187.6zM354.9 187.3l.1.5 15.3-.7-.1-.5L354.9 187.3zM355.8 188.5v.4l-3.3.3v-.4L355.8 188.5zM333.9 205.8l.1.5 1-.1c0-.3.1-.8.3-1.4l-.1-.8C334.7 204.1 334.3 204.6 333.9 205.8L333.9 205.8zM300.3 254.7l.1.4c.1.6-.3.9-.9 1l-.1-.4C299.3 255.2 299.6 254.9 300.3 254.7L300.3 254.7zM299.4 256.5c.1.8-.5 2.9-1.7 6.3l-1.4.1c-.1-.6.7-2.7 2.2-6.3L299.4 256.5zM315.2 270.2c.1.5-.7 1-2.2 1.5l-2.9-.2-.9.1-.1-.8L315.2 270.2zM318 270.4l.1.4-2.4.2-.1-.4L318 270.4z"/></svg>