<svg height="512" width="512" xmlns="http://www.w3.org/2000/svg"><path fill-rule="evenodd" clip-rule="evenodd" fill="#1758a7" d="M91.809 117.07L122.593 450.579 255.999 486.501 389.402 450.579 420.191 117.07z"/><path fill-rule="evenodd" clip-rule="evenodd" fill="#379ad6" d="M255.997 144.084L255.997 457.852 256.298 457.933 364.257 428.863 389.175 144.084z"/><path fill-rule="evenodd" clip-rule="evenodd" fill="#e8e8e7" d="M255.623 372.537L255.551 372.558 210.981 361.197 208.28 328.479 166.861 328.479 172.263 391.644 256.001 416.637 256.001 372.43z"/><path fill-rule="evenodd" clip-rule="evenodd" fill="#fbfbfa" d="M256.001 266.782L256.001 306.911 256.12 306.911 305.622 306.965 302.445 359.419 256.12 372.47 256.001 372.504 256.001 416.591 256.12 416.627 256.153 416.637 340.114 392.114 351.007 266.782z"/><path fill-rule="evenodd" clip-rule="evenodd" fill="#e5e4e2" d="M161.002 266.782L164.154 306.869 164.159 306.931 256.001 306.937 256.001 266.782z"/><path fill-rule="evenodd" clip-rule="evenodd" fill="#eee" d="M161.008 266.782L255.768 266.782 256.001 266.681 256.001 226.617z"/><path fill-rule="evenodd" clip-rule="evenodd" fill="#fff" d="M261.553 224.667L256.001 226.992 256.001 266.773 353.955 224.667z"/><path fill-rule="evenodd" clip-rule="evenodd" fill="#e7e7e6" d="M152.196 184.515L157.16 224.667 256.001 224.667 256.001 184.515z"/><path d="M256.001,224.667l101.842-40.152H256.001V224.667z M256.028,224.667h97.76l4.056-40.152L256.028,224.667z" fill-rule="evenodd" clip-rule="evenodd" fill="#f8f8f7"/><path d="M158.564,87.892h50.683V68.07h-28.961v-19.85h28.961V26.499 h-50.683V87.892z M230.907,48.221c6.781,6.781,10.317,10.026,20.125,19.835c-5.732,0-20.125,0.021-20.125,0.019v19.817h50.687 V68.07l-20.246-19.85h20.246V26.499h-50.687C230.907,26.499,230.907,37.401,230.907,48.221z M353.436,26.499h-50.69 c0,0,0,10.902,0,21.722c6.781,6.781,10.319,10.026,20.127,19.835c-5.73,0-20.127,0.021-20.127,0.019v19.817h50.69V68.07 l-20.247-19.85h20.247V26.499z" fill-rule="evenodd" clip-rule="evenodd" fill="#1b1b1b"/></svg>