<svg xmlns="http://www.w3.org/2000/svg" viewBox="0 0 128 128"><g fill="none" fill-rule="evenodd"><path fill="#0099C9" d="M0 0H128V128H0z"/><path fill="#FFF" fill-rule="nonzero" d="M107.175166,60.6265636 C104.542162,58.9610525 101.538063,57.9903081 98.4380116,57.8032401 C97.9071755,57.7593483 97.3736828,57.7593483 96.8428466,57.8032401 C95.8429399,54.4412945 93.7473691,51.5206149 90.8972315,49.5166022 C90.1649978,49.0201759 89.1858115,49.1284938 88.5769914,49.773268 C86.0316205,53.2133089 85.0799879,57.597885 85.9667214,61.7998928 C86.0314988,62.3463104 85.8596751,62.8943861 85.4954226,63.3032209 C85.1820762,63.6575911 84.7328268,63.8580461 84.2627951,63.853219 L82.6313763,63.853219 L82.6313763,54.8332504 C82.6313763,53.8207319 81.8198084,52.9999234 80.8186888,52.9999234 L71.7552511,52.9999234 L71.7552511,32.833327 C71.7552511,31.8208084 70.9436832,31 69.9425635,31 L59.0664383,31 C58.0653186,31 57.2537508,31.8208084 57.2537508,32.833327 L57.2537508,41.9999617 L37.3141878,41.9999617 C36.3130682,41.9999617 35.5015003,42.8207702 35.5015003,43.8332887 L35.5015003,52.9999234 L26.4380626,52.9999234 C25.4369429,52.9999234 24.6253751,53.8207319 24.6253751,54.8332504 L24.6253751,63.9998852 L22.8126875,63.9998852 C21.8115679,63.9998852 21,64.8206936 21,65.8332121 C21,93.9564476 41.2658467,96.9997703 50.0030006,96.9997703 C68.4690572,97.0549456 85.5681603,87.1647947 94.8851441,71.0398607 C100.093774,70.3452015 104.76893,67.4548914 107.755226,63.0832217 C108.239385,62.2387415 107.98436,61.1586665 107.175166,60.6265636 Z M79.0060012,63.9998852 L71.7552511,63.9998852 L71.7552511,56.6665774 L79.0060012,56.6665774 L79.0060012,63.9998852 Z M39.1268754,63.9998852 L39.1268754,56.6665774 L46.3776255,56.6665774 L46.3776255,63.9998852 L39.1268754,63.9998852 Z M50.0030006,63.9998852 L50.0030006,56.6665774 L57.2537508,56.6665774 L57.2537508,63.9998852 L50.0030006,63.9998852 Z M68.129876,45.6666156 L68.129876,52.9999234 L60.8791258,52.9999234 L60.8791258,45.6666156 L68.129876,45.6666156 Z M60.8791258,63.9998852 L60.8791258,56.6665774 L68.129876,56.6665774 L68.129876,63.9998852 L60.8791258,63.9998852 Z M60.8791258,34.6666539 L68.129876,34.6666539 L68.129876,41.9999617 L60.8791258,41.9999617 L60.8791258,34.6666539 Z M57.2537508,52.9999234 L50.0030006,52.9999234 L50.0030006,45.6666156 L57.2537508,45.6666156 L57.2537508,52.9999234 Z M39.1268754,45.6666156 L46.3776255,45.6666156 L46.3776255,52.9999234 L39.1268754,52.9999234 L39.1268754,45.6666156 Z M28.2507502,56.6665774 L35.5015003,56.6665774 L35.5015003,63.9998852 L28.2507502,63.9998852 L28.2507502,56.6665774 Z M39.1268754,82.3331547 C37.124636,82.3331547 35.5015003,80.6915378 35.5015003,78.6665008 C35.5015003,76.6414638 37.124636,74.9998469 39.1268754,74.9998469 C41.1291147,74.9998469 42.7522505,76.6414638 42.7522505,78.6665008 C42.7522505,80.6915378 41.1291147,82.3331547 39.1268754,82.3331547 Z"/></g></svg>