<svg height="512" width="512" xmlns="http://www.w3.org/2000/svg"><path fill-rule="evenodd" clip-rule="evenodd" fill="#e44d26" d="M93.063 116.909L122.719 449.542 255.8 486.486 389.249 449.489 418.938 116.909z"/><path d="M256,184.903H153.702l0.977,10.945l10.027,112.422H256 v-40.795h-53.984l-3.729-41.775H256V184.903z M210.386,361.206l-2.905-32.536h-40.953l5.716,64.056l83.568,23.198l0.188-0.052 v-42.445l-0.179,0.048L210.386,361.206z" fill-rule="evenodd" clip-rule="evenodd" fill="#ebebeb"/><path fill-rule="evenodd" clip-rule="evenodd" fill="#f16529" d="M256 144.106L256 458.208 363.832 428.313 389.203 144.106z"/><path d="M255.858,308.271h50.236l-4.736,52.91l-45.5,12.281v42.442 l83.634-23.179l0.614-6.892l9.587-107.403l0.995-10.955h-94.83V308.271z M255.858,184.903V225.7H354.4l0.818-9.17l1.859-20.682 l0.975-10.945H255.858z" fill-rule="evenodd" clip-rule="evenodd" fill="#fff"/><path d="M163.079,46.997h-18.965V26.514h-20.731v62.028h20.732V67.771h18.964 v20.771h20.732V26.514h-20.733V46.997z M192.824,47.083h18.252v41.459h20.733V47.083h18.26V26.514h-57.245V47.083z M294.07,48.309l-13.299-21.795h-21.617v62.028h20.285V57.797l14.273,22.055h0.357l14.263-22.055v30.745h20.646V26.514h-21.626 L294.07,48.309z M360.036,68.039V26.514h-20.738v62.028h49.894V68.039H360.036z" fill-rule="evenodd" clip-rule="evenodd"/></svg>