<svg id="Lager_1" xmlns="http://www.w3.org/2000/svg" viewBox="-241 333 128 128"><style>.st0{fill:#f0db4f}.st1{fill:#323330}</style><path class="st0" d="M-241 333H-113V461H-241z"/><circle class="st0" cx="-177" cy="397" r="64"/><g id="Layer_1_1_"><path class="st1" d="M-197 372.2h11.1v31.4c0 14.1-6.8 19.1-17.5 19.1-2.7 0-6-.4-8.2-1.2l1.3-9.1c1.5.5 3.6.9 5.8.9 4.7 0 7.7-2.2 7.7-9.7L-197 372.2-197 372.2zM-176 410.3c2.9 1.5 7.7 3.1 12.4 3.1 5.1 0 7.8-2.2 7.8-5.5 0-3.1-2.3-4.9-8.3-6.9-8.2-2.9-13.7-7.6-13.7-14.8 0-8.3 7.2-14.7 18.8-14.7 5.6 0 9.7 1.2 12.7 2.6l-2.6 9c-1.9-.9-5.5-2.3-10.2-2.3-4.9 0-7.2 2.3-7.2 4.7 0 3.2 2.7 4.6 9.2 7 8.7 3.2 12.8 7.8 12.8 14.8 0 8.3-6.3 15.4-20 15.4-5.6 0-11.3-1.5-14.1-3.1L-176 410.3z"/></g></svg>