<svg id="svg2" xmlns="http://www.w3.org/2000/svg" viewBox="0 0 128 128"><style>.st1{fill:#fff}</style><path fill="#58aa50" d="M0 0H128V128H0z"/><path class="st1" d="M66.2,112l-2.6-0.9c0,0,0.3-13-4.4-14c-3.1-3.6,0.5-153.4,11.7-0.5c0,0-3.9,1.9-4.5,5.2 C65.7,105.1,66.2,112,66.2,112L66.2,112L66.2,112z"/><path d="M66.2,112l-2.6-0.9c0,0,0.3-13-4.4-14c-3.1-3.6,0.5-153.4,11.7-0.5c0,0-3.9,1.9-4.5,5.2 C65.7,105.1,66.2,112,66.2,112L66.2,112L66.2,112z" fill="#a6a385" stroke="#fff" stroke-width="2" stroke-miterlimit="10"/><path class="st1" d="M67.6,99.4c0,0,22.4-14.7,17.1-45.3c-5-22.2-17-29.5-18.3-32.3c-1.4-2-2.8-5.5-2.8-5.5l0.9,61.9 C64.6,78.2,62.7,97.1,67.6,99.4"/><path d="M67.6,99.4c0,0,22.4-14.7,17.1-45.3c-5-22.2-17-29.5-18.3-32.3c-1.4-2-2.8-5.5-2.8-5.5l0.9,61.9 C64.6,78.2,62.7,97.1,67.6,99.4" fill="#499d4a" stroke="#fff" stroke-width="2" stroke-miterlimit="10"/><path class="st1" d="M62.3,100.2c0,0-21-14.3-19.8-39.6c1.2-25.2,16-37.6,18.9-39.9c1.9-2,2-2.7,2.2-4.7c1.3,2.8,1.1,41.9,1.2,46.6 C65.3,80.3,63.8,96.9,62.3,100.2L62.3,100.2L62.3,100.2z"/><path d="M62.3,100.2c0,0-21-14.3-19.8-39.6c1.2-25.2,16-37.6,18.9-39.9c1.9-2,2-2.7,2.2-4.7c1.3,2.8,1.1,41.9,1.2,46.6 C65.3,80.3,63.8,96.9,62.3,100.2L62.3,100.2L62.3,100.2z" fill="#58aa50" stroke="#fff" stroke-width="2" stroke-miterlimit="10"/></svg>