<svg xmlns="http://www.w3.org/2000/svg" viewBox="0 0 128 128"><g fill="none" fill-rule="evenodd"><path fill="#090" d="M0 0H128V128H0z"/><path d="M21.5065453 25C20.8582471 25 20.2199227 24.7371706 19.7431742 24.2395609L4.98690934 8.86871817 4.98690934 22.402872C4.98690934 23.8375254 3.87083903 25 2.49345467 25 1.1170677 25 0 23.8375254 0 22.402872L0 2.59821216C0 1.54689472.608402943.60050125 1.53995761.198465826 2.47051489-.204608451 3.54369779.017705712 4.25682583.761523192L19.0130906 16.132366 19.0130906 2.59821216C19.0130906 1.16355862 20.1291609.00108409219 21.5065453.00108409219 22.8839296.00108409219 24 1.16355862 24 2.59821216L24 22.402872C24 23.4531505 23.3915971 24.400583 22.4600424 24.8026184 22.1518514 24.9355912 21.8286997 25 21.5065453 25M33.67168 0L32.9862539 1.33541667 27.6854261 11.39375 27 12.6635417 27.6854261 13.9322917 32.9862539 23.6656249 33.7026089 25 47.5777476 25 48.2631735 23.5354166 52.2230804 15.2020834 54 11.4260417 49.9782353 11.4260417 39.845503 11.4583334C38.5275294 11.4395833 37.315313 12.6864584 37.315313 14.0625 37.315313 15.4385417 38.5275294 16.6864584 39.845503 16.6666667L45.9564705 16.634375 44.459907 19.7916667 36.6029488 19.7916667 32.7048998 12.6302084 36.6338779 5.20833332 44.991686 5.20833332 46.9402115 9.38333333 51.9606831 9.38333333 48.7959503 1.465625 48.1095266 0 33.67168 0M59.469015.000174976191C58.1591035.0160933049 56.9831832 1.21593732 57.0001821 2.51825557L57.0001821 9 61.9998441 9 61.9998441 2.51825557C62.0158429 1.19504451 60.7979255-.0167382479 59.469015.000174976191M67.4925607 25C67.1713905 25 66.8472278 24.93559 66.5390241 24.8026146 65.6074304 24.4005718 65 23.4531222 65 22.4028244L65 2.59780259C65 1.16312283 66.1161163.000627059641 67.4935582.000627059641 68.8709997.000627059641 69.9871165 1.16312283 69.9871165 2.59780259L69.9871165 16.1322037 84.743995.761080056C85.4551576.0193267235 86.5263901-.205069243 87.4609759.198012401 88.3925691.600055176 89 1.54750481 89 2.59780259L89 22.4028244C89 23.8375042 87.8838832 25 86.5064418 25 85.1290003 25 84.0128835 23.8375042 84.0128835 22.4028244L84.0128835 8.8684232 69.256005 24.239547C68.780234 24.7361269 68.1418833 25 67.4925607 25M107.525362 12.5116467L115.267882 4.44594835C116.241545 3.43214138 116.244532 1.78444483 115.273855.765433511 114.304173-.252536934 112.729187-.254618674 111.754528.759188298L104.000062 8.83841798 96.2455957.759188298C95.2709362-.255659543 93.6959503-.252536934 92.7262686.765433511 91.7555914 1.78444483 91.7585784 3.43214138 92.7312466 4.44594835L100.473766 12.5116467 92.7541448 20.554446C91.7794853 21.5692938 91.7774939 23.2159495 92.7481712 24.23392 93.2340074 24.7449869 93.8721658 25 94.5113193 25 95.1464906 25 95.781662 24.7470686 96.2674982 24.2401651L104.000062 16.1848755 111.73163 24.2401651C112.218462 24.7470686 112.852638 25 113.488805 25 114.127958 25 114.765121 24.7449869 115.251953 24.23392 116.221634 23.2159495 116.219643 21.5692938 115.245979 20.554446L107.525362 12.5116467M59.469015 23.9998441C58.1591035 23.9838394 56.9831832 22.7774827 57.0001821 21.4680954L57.0001821 11 61.9998441 11 61.9998441 21.4680954C62.0158429 22.7974885 60.7979255 24.0158489 59.469015 23.9998441" transform="translate(6 52)" fill="#FFF" fill-rule="nonzero"/></g></svg>