<svg id="Lager_1" xmlns="http://www.w3.org/2000/svg" viewBox="0 0 128 128"><style>.st1{fill:#fff}</style><path fill="#36447f" d="M0 0H128V128H0z"/><g id="Layer_2_1_"><path class="st1" d="M35.5 54.7c2.9 0 4.9.5 5.9 1.7 1 1 1.2 2.9.6 5.5-.5 2.7-1.5 4.7-3.1 5.9-1.5 1.2-3.8 1.8-6.9 1.8h-4.7l2.8-14.8C30.1 54.7 35.5 54.7 35.5 54.7zM16.6 84.5h7.7l1.8-9.5h6.7c2.9 0 5.2-.3 7.2-.9 1.9-.6 3.6-1.7 5.1-3.1 1.3-1.2 2.3-2.6 3.2-4 .8-1.4 1.4-3.1 1.7-4.7.8-4.2.3-7.4-1.8-9.9-2-2.3-5.2-3.5-9.7-3.5H23.7L16.6 84.5zM57.7 39.7h7.7l-1.8 9.5h6.8c4.2 0 7.3.8 8.8 2.3 1.7 1.5 2.2 4 1.4 7.3l-3.2 16.5h-7.8l3.1-15.6c.4-1.8.3-2.9-.4-3.6-.6-.6-1.9-1-3.8-1h-6.1l-4 20.2h-7.7L57.7 39.7zM97.8 54.7c2.9 0 4.9.5 5.9 1.7 1 1 1.2 2.9.6 5.5-.5 2.7-1.5 4.7-3.1 5.9s-3.8 1.8-6.9 1.8h-4.7l2.8-14.8C92.4 54.7 97.8 54.7 97.8 54.7zM79 84.5h7.7l1.8-9.5h6.7c2.9 0 5.2-.3 7.2-.9 1.9-.6 3.6-1.7 5.1-3.1 1.3-1.2 2.3-2.6 3.2-4 .8-1.4 1.4-3.1 1.7-4.7.8-4.2.3-7.4-1.8-9.9-2-2.3-5.2-3.5-9.7-3.5H86.1L79 84.5z"/></g></svg>