<svg xmlns="http://www.w3.org/2000/svg" viewBox="0 0 128 128"><g fill="none" fill-rule="evenodd"><path fill="#1D272C" d="M0 0H128V128H0z"/><path fill="#F15A24" fill-rule="nonzero" d="M12.215 68.258L0 68.683 6.262 62.303 12.215 68.258zM67.6230096 36.6181727C65.3536305 54.3480232 49.1685791 66.874277 31.4772723 64.5978868 13.78304 62.3234511 1.28195048 46.1063081 3.55132951 28.3779236 5.82217142 10.6485617 22.0038095-1.87915795 39.6995047.397720898 57.3927618 2.67117953 69.8967771 18.8897882 67.6230096 36.6176843" transform="translate(30 29)"/><path fill="#999" fill-rule="nonzero" d="M43.8232991,23.2974543 C45.9459048,25.5582094 43.8510933,30.9035002 43.8510933,30.9035002 C43.8510933,30.9035002 41.7806628,38.4606858 29.9266438,48.2605482 L27.7138285,46.0843211 L42.7617525,30.6738579 L43.0523733,30.2805343 C43.4527087,29.6267867 43.7842894,23.2534803 43.8232991,23.2974543" transform="translate(30 29)"/><path stroke="#FFF" stroke-linecap="round" stroke-linejoin="round" stroke-width="1.918" d="M43.8232991,23.2974543 C45.9459048,25.5582094 43.8510933,30.9035002 43.8510933,30.9035002 C43.8510933,30.9035002 41.7806628,38.4606858 29.9266438,48.2605482 L27.7138285,46.0843211 L42.7617525,30.6738579 L43.0523733,30.2805343 C43.4527087,29.6267867 43.7842894,23.2534803 43.8232991,23.2974543 Z" transform="translate(30 29)"/><path fill="#666" fill-rule="nonzero" d="M24.4638476,42.8805667 L43.7916037,23.2417539 C44.7726933,24.4090207 44.9813944,25.6666787 44.6966247,27.4583773 C44.5049904,28.6994227 42.3658057,31.1795594 42.3658057,31.1795594 L27.7138285,46.0843211" transform="translate(30 29)"/><path stroke="#FFF" stroke-linecap="round" stroke-linejoin="round" stroke-width="1.201" d="M24.4638476,42.8805667 L43.7916037,23.2417539 C44.7726933,24.4090207 44.9813944,25.6666787 44.6966247,27.4583773 C44.5049904,28.6994227 42.3658057,31.1795594 42.3658057,31.1795594 L27.7138285,46.0843211" transform="translate(30 29)"/><path fill="#FF931E" fill-rule="nonzero" d="M43.8232991,23.3111352 L24.4638476,42.8810554 L24.5028571,42.8429445 L24.4955429,42.8458763 L19.6924952,38.1035187 C29.708678,25.6192845 36.1847468,23.2915911 36.1847468,23.2915911 C36.1847468,23.2915911 40.4007011,21.6425641 43.4083352,22.9222091 C43.6394667,23.0463136 43.7399162,23.1176493 43.8228114,23.3116238" transform="translate(30 29)"/><path stroke="#FFF" stroke-linecap="round" stroke-linejoin="round" stroke-width="1.918" d="M43.8232991,23.3111352 L24.4638476,42.8810554 L24.5028571,42.8429445 L24.4955429,42.8458763 L19.6924952,38.1035187 C29.708678,25.6192845 36.1847468,23.2915911 36.1847468,23.2915911 C36.1847468,23.2915911 40.4007011,21.6425641 43.4083352,22.9222091 C43.6394667,23.0463136 43.7399162,23.1176493 43.8228114,23.3116238 L43.8232991,23.3111352 Z" transform="translate(30 29)"/><path fill="#999" fill-rule="nonzero" d="M29.9266438,48.2600595 C25.3079162,52.071633 19.3969981,58.0589449 11.362499,62.2350142 L13.1496229,69.8904087 L5.57494858,62.4148192 L24.46336,42.8805667" transform="translate(30 29)"/><path stroke="#FFF" stroke-linecap="round" stroke-linejoin="round" stroke-width="1.918" d="M29.9266438,48.2600595 C25.3079162,52.071633 19.3969981,58.0589449 11.362499,62.2350142 L13.1496229,69.8904087 L5.57494858,62.4148192 L24.46336,42.8805667" transform="translate(30 29)"/><path fill="#F15A24" fill-rule="nonzero" d="M19.822 38.168L24.514 42.851 13.674 45.203 19.718 38.083 19.822 38.168z" transform="translate(30 29)"/><path stroke="#FFF" stroke-linecap="round" stroke-linejoin="round" stroke-width="1.918" d="M19.822 38.168L24.514 42.851 13.674 45.203 19.718 38.083 19.822 38.168z" transform="translate(30 29)"/><path fill="#999" fill-rule="nonzero" d="M41.9752228,17.6321303 C41.5149106,21.7950075 44.5059657,25.5425742 48.6604799,26.0067447 C52.8115808,26.4689609 56.5550324,23.4694418 57.0182704,19.3080303 C57.4800457,15.146619 54.4841144,11.3951434 50.3315504,10.9324387 C46.1765486,10.4726655 42.4360229,13.4682758 41.9752228,17.6321303" transform="translate(30 29)"/><path stroke="#FFF" stroke-linecap="round" stroke-linejoin="round" stroke-width="1.918" d="M41.9752228,17.6321303 C41.5149106,21.7950075 44.5059657,25.5425742 48.6604799,26.0067447 C52.8115808,26.4689609 56.5550324,23.4694418 57.0182704,19.3080303 C57.4800457,15.146619 54.4841144,11.3951434 50.3315504,10.9324387 C46.1765486,10.4726655 42.4360229,13.4682758 41.9752228,17.6321303 Z" transform="translate(30 29)"/><path fill="#666" fill-rule="nonzero" d="M55.9313677,22.6603191 C57.327421,20.6165028 57.2552533,17.5588402 56.9748723,16.6529746 C56.631101,15.5438513 55.8616382,13.7399378 54.5197105,12.8023132 L47.4238781,19.3515158 C47.4238781,19.3515158 52.8774096,25.2225408 53.0193067,25.2420848 C53.0783087,25.2489252 54.6581944,24.5238419 55.9313677,22.6603191" transform="translate(30 29)"/><path stroke="#FFF" stroke-linecap="round" stroke-linejoin="round" stroke-width="1.918" d="M55.9313677,22.6603191 C57.327421,20.6165028 57.2552533,17.5588402 56.9748723,16.6529746 C56.631101,15.5438513 55.8616382,13.7399378 54.5197105,12.8023132 L47.4238781,19.3515158 C47.4238781,19.3515158 52.8774096,25.2225408 53.0193067,25.2420848 C53.0783087,25.2489252 54.6581944,24.5238419 55.9313677,22.6603191 Z M54.499718,17.5300127 C54.499718,17.5300127 55.1818972,19.2088444 54.3163733,20.5148739 L54.499718,17.5300127 Z" transform="translate(30 29)"/><path fill="#666" fill-rule="nonzero" d="M27.881 46.087L20.05 47.484 24.777 42.562" transform="translate(30 29)"/><path stroke="#FFF" stroke-linecap="round" stroke-linejoin="round" stroke-width="1.918" d="M27.8810819,46.0872526 L20.04992,47.4836733 L24.7768991,42.5624878 M20.0035962,38.2017273 L29.9593144,47.590188" transform="translate(30 29)"/></g></svg>