<svg height="512" width="512" xmlns="http://www.w3.org/2000/svg"><g color="#000"><g stroke-width="1.448"><path style="marker:none" fill="#222" overflow="visible" d="M0 352.362H900V1052.362H0z" transform="matrix(.38 0 0 .38 106 -35.51)"/><path style="marker:none" fill="#fff" overflow="visible" d="M50 402.362H850V1002.3620000000001H50z" transform="matrix(.38 0 0 .38 106 -35.51)"/></g><path style="marker:none" fill="#222" stroke-width="1.448" overflow="visible" d="M-250.239 736.997H449.76099999999997V1236.9969999999998H-250.239z" transform="matrix(.38 0 0 .38 124.84 -48.5)"/><path style="marker:none" fill="#fff" stroke-width="1.448" overflow="visible" d="M-200.239 786.997H349.76099999999997V1186.9969999999998H-200.239z" transform="matrix(.38 0 0 .38 124.84 -48.5)"/><path d="m -385.71426,736.64789 c 0,41.81584 -79.30956,75.71428 -177.14286,75.71428 -97.83329,0 -177.14285,-33.89844 -177.14285,-75.71428 0,-41.81585 79.30956,-75.71429 177.14285,-75.71429 97.8333,0 177.14286,33.89844 177.14286,75.71429 z" style="marker:none" transform="matrix(.04234 0 0 .09906 298.58 248.655)" fill="#fff" overflow="visible"/><path style="marker:none" fill="#ccc" stroke-width="1.448" overflow="visible" d="M515 597.362H647.5V622.362H515zM515 624.862H557.5V668.612H515zM560 624.862H602.5V668.612H560zM605 624.862H647.5V668.612H605zM565 514.862H760V539.862H565zM565 542.362H611.875V558.612H565zM614.375 542.362H661.25V558.612H614.375zM663.75 542.36218l0 16.25 11.25 0 0 72.5 35.625 0 0-88.75-46.875 0zM713.125 542.362H760V631.112H713.125z" transform="matrix(1.5 0 0 1.5 -719 -610.043)"/><g stroke-width="1.448"><path d="m 819.27679,836.64286 c -1.72589,0 -3.40381,0.167 -5.03125,0.5 -1.62744,0.333 -3.19202,0.8361 -4.6875,1.4688 -1.49548,0.6325 -2.91999,1.4139 -4.25,2.3124 -1.33001,0.8986 -2.55647,1.9003 -3.6875,3.0313 -1.13103,1.131 -2.16396,2.3888 -3.0625,3.7187 -0.89854,1.3302 -1.67997,2.7547 -2.3125,4.25 -0.63253,1.4955 -1.10448,3.06 -1.4375,4.6876 -0.33302,1.6273 -0.53125,3.3053 -0.53125,5.0312 l 0,300.00004 c 0,1.7259 0.19823,3.404 0.53125,5.0312 0.33302,1.6277 0.80497,3.2233 1.4375,4.7188 0.63253,1.4955 1.41396,2.8885 2.3125,4.2188 0.89854,1.3298 1.93147,2.5877 3.0625,3.7187 1.13103,1.131 2.35749,2.164 3.6875,3.0625 1.33001,0.8985 2.75452,1.6489 4.25,2.2812 1.49548,0.6327 3.06006,1.1358 4.6875,1.4688 1.62744,0.333 3.30536,0.5 5.03125,0.5 l 150,0 c 1.72589,0 3.43506,-0.167 5.0625,-0.5 1.62744,-0.333 3.19202,-0.836 4.6875,-1.4688 1.49548,-0.6323 2.91999,-1.3827 4.25,-2.2812 1.33001,-0.8985 2.55647,-1.9315 3.6875,-3.0625 1.13103,-1.131 2.16396,-2.3889 3.0625,-3.7187 0.89854,-1.3302 1.64872,-2.7233 2.28125,-4.2188 0.63253,-1.4955 1.13573,-3.0911 1.46875,-4.7188 0.33302,-1.6273 0.5,-3.3053 0.5,-5.0312 l 0,-300.00004 c 0,-1.7259 -0.16698,-3.404 -0.5,-5.0312 -0.33302,-1.6277 -0.83622,-3.1921 -1.46875,-4.6876 -0.63253,-1.4953 -1.38271,-2.9198 -2.28125,-4.25 -0.89854,-1.3298 -1.93147,-2.5877 -3.0625,-3.7187 -1.13103,-1.131 -2.35749,-2.1327 -3.6875,-3.0313 -1.33001,-0.8985 -2.75452,-1.6799 -4.25,-2.3124 -1.49548,-0.6327 -3.06006,-1.1358 -4.6875,-1.4688 -1.62744,-0.333 -3.33661,-0.5 -5.0625,-0.5 l -150,0 z" style="marker:none" fill="#222" overflow="visible" transform="matrix(.38 0 0 .38 108.146 -48.366)"/><path style="marker:none" fill="#fff" overflow="visible" d="M819.286 886.643H969.286V1136.643H819.286z" transform="matrix(.38 0 0 .38 108.146 -48.366)"/></g><path style="marker:none" fill="#ccc" stroke-width="1.448" overflow="visible" d="M758.75 611.112H791.25V628.612H758.75zM758.75 631.112H791.25V658.612H758.75z" transform="matrix(1.5 0 0 1.5 -719 -610.043)"/></g></svg>