<svg width="897" height="452" xmlns="http://www.w3.org/2000/svg"><g fill="none" fill-rule="evenodd"><g transform="translate(681 55)" stroke="#7E89A3"><path d="M202.986,317 L12.097,317 C5.462,317 0.083,311.623 0.083,304.99 L0.083,12.093 C0.083,5.46 5.461,0.083 12.097,0.083 L202.986,0.083 C209.622,0.083 215,5.46 215,12.093 L215,304.99 C215,311.623 209.622,317 202.986,317 Z" stroke-width="2" fill="#FDFDFD"/><path d="M202.986,317 L12.097,317 C5.462,317 0.083,311.623 0.083,304.99 L0.083,12.093 C0.083,5.46 5.461,0.083 12.097,0.083 L202.986,0.083 C209.622,0.083 215,5.46 215,12.093 L215,304.99 C215,311.623 209.622,317 202.986,317 Z" stroke-width="2" fill="#FDFDFD"/><path fill="#FFFFFF" d="M17 32H198.999V284.91700000000003H17z"/><circle cx="108.021" cy="300.021" r="8.021"/><circle cx="106.99" cy="16.99" r="2.99"/></g><g transform="translate(1 1)" stroke="#8492A5"><path d="M594,0 L98,0 C84.50415,0 73,11.0738184 73,24.7901127 L73,351.027995 L619,351.027985 L619,24.7901127 C618.999971,11.0728209 607.537479,0 594,0 Z" stroke-width="2" fill="#FEFEFE"/><circle stroke-width="2" cx="347" cy="19" r="4"/><path d="M640.812,31.01 L51.288,31.01 C20.641,31.01 0,20.494 0,16.022 L0,2.428 C0,1.084 1.335,0 2.995,0 L689.104,0 C690.766,0 692.103,1.084 692.103,2.428 L692.103,16.557 C692.096,20.092 676.112,31.01 640.812,31.01 Z" stroke-width="2" fill="#FDFDFD" transform="translate(0 351)"/><path d="M0.5,14.5 L690.242676,14.5" stroke-linecap="square" transform="translate(0 351)"/><path fill="#FFFFFF" d="M95 39H596.0740000000001V331.009H95zM421 352L421 355.087C421 357.288 416.666719 357.952714 413.386719 357.952714L278.815286 357.952714C275.364286 357.952714 271 357.289 271 355.087L271 352"/></g><g transform="translate(576 177)" stroke="#7E89A3"><path d="M130,257.964 C130,266.797 122.809,273.956 113.938,273.956 L16.063,273.956 C7.192,273.956 0.001,266.797 0.001,257.964 L0.001,16.073 C0.001,7.24 7.192,0.081 16.063,0.081 L113.938,0.081 C122.809,0.081 130,7.24 130,16.073 L130,257.964 L130,257.964 Z" stroke-width="2" fill="#FDFDFD"/><path fill="#FFFFFF" d="M9 36H120.93V235.084H9z"/><path d="M77,25.746 C77,26.381 76.561,26.893 76.02,26.893 L55.918,26.893 C55.376,26.893 54.938,26.38 54.938,25.746 L54.938,23.166 C54.938,22.531 55.377,22.019 55.918,22.019 L76.02,22.019 C76.561,22.019 77,22.532 77,23.166 L77,25.746 L77,25.746 Z"/><circle cx="66" cy="12" r="3"/><ellipse cx="65.04" cy="254.001" rx="10.04" ry="10.001"/></g></g></svg>