<svg xmlns="http://www.w3.org/2000/svg" xmlns:xlink="http://www.w3.org/1999/xlink" viewBox="0 0 128 128"><defs><path id="a" d="M14.389 2.014L32.975 0 51.561 2.014 65.951 21.809 32.975 61.16 0 21.809z"/><path id="c" d="M13.761 0.065L33.975 38.963 0 0.065z"/><path id="e" d="M20.231 0.065L0.018 38.963 33.992 0.065z"/><path id="g" d="M0.022 0.065L38.935 0.065 19.479 38.963z"/><path id="i" d="M20.453 0L1.099 2.054 0.023 22.249z"/><path id="k" d="M0.016 0L17.527 2.054 18.5 22.249z"/><path id="m" d="M14.788 20.152L0.071 0.038 1.127 20.152z"/><path id="o" d="M0 20.152L14.716 0.038 13.66 20.152z"/><path id="q" d="M19.479 0L0.022 22.249 38.935 22.249z"/></defs><g fill="none" fill-rule="evenodd"><path fill="#130C33" d="M0 0H128V128H0z"/><g transform="translate(30 33)"><mask id="b" fill="#fff"><use xlink:href="#a"/></mask><path fill="#FDB300" fill-rule="nonzero" mask="url(#b)" d="M-0.839 62.02L66.789 62.02 66.789 -0.859 -0.839 -0.859z"/><g transform="translate(0 22)"><mask id="d" fill="#fff"><use xlink:href="#c"/></mask><path fill="#EA6C00" fill-rule="nonzero" mask="url(#d)" d="M-0.864 39.812L34.839 39.812 34.839 -0.785 -0.864 -0.785z"/></g><g transform="translate(34 22)"><mask id="f" fill="#fff"><use xlink:href="#e"/></mask><path fill="#EA6C00" fill-rule="nonzero" mask="url(#f)" d="M-0.846 39.812L34.856 39.812 34.856 -0.785 -0.846 -0.785z"/></g><g transform="translate(13 22)"><mask id="h" fill="#fff"><use xlink:href="#g"/></mask><path fill="#FDAD00" fill-rule="nonzero" mask="url(#h)" d="M-0.809 39.812L39.767 39.812 39.767 -0.785 -0.809 -0.785z"/></g><g transform="translate(13)"><mask id="j" fill="#fff"><use xlink:href="#i"/></mask><path fill="#FDD231" fill-rule="nonzero" mask="url(#j)" d="M-0.85 23.125L21.326 23.125 21.326 -0.877 -0.85 -0.877z"/></g><g transform="translate(34)"><mask id="l" fill="#fff"><use xlink:href="#k"/></mask><path fill="#FDD231" fill-rule="nonzero" mask="url(#l)" d="M-0.774 23.125L19.29 23.125 19.29 -0.877 -0.774 -0.877z"/></g><g transform="translate(52 2)"><mask id="n" fill="#fff"><use xlink:href="#m"/></mask><path fill="#FDAD00" fill-rule="nonzero" mask="url(#n)" d="M-0.786 21.025L15.645 21.025 15.645 -0.836 -0.786 -0.836z"/></g><g transform="translate(0 2)"><mask id="p" fill="#fff"><use xlink:href="#o"/></mask><path fill="#FDAD00" fill-rule="nonzero" mask="url(#p)" d="M-0.858 21.025L15.574 21.025 15.574 -0.836 -0.858 -0.836z"/></g><g transform="translate(13)"><mask id="r" fill="#fff"><use xlink:href="#q"/></mask><path fill="#FEEEB7" fill-rule="nonzero" mask="url(#r)" d="M-0.809 23.125L39.767 23.125 39.767 -0.877 -0.809 -0.877z"/></g></g></g></svg>