<svg height="60" width="60" xmlns="http://www.w3.org/2000/svg" xmlns:xlink="http://www.w3.org/1999/xlink"><defs><path id="a" d="M7.84866785 1.07177992L17.9865332 0 28.1243985 1.07177992 35.9730709 11.6079278 17.9865332 32.5530572 0 11.6079278z"/><path id="c" d="M7.28545311 0.0348655654L17.9865332 20.9799949 0 0.0348655654z"/><path id="e" d="M10.7104849 0.0348655654L0.00940482846 20.9799949 17.9959426 0.0348655654z"/><path id="g" d="M0.0122637865 0.0348655654L21.4144239 0.0348655654 10.7133438 20.9799949z"/><path id="i" d="M10.7133438 0L0.575478526 1.07177992 0.0122637865 11.6079278z"/><path id="k" d="M0.00940482846 0L10.1472701 1.07177992 10.7104849 11.6079278z"/><path id="m" d="M7.88666684 10.5558313L0.0379944091 0.0196833545 0.601209149 10.5558313z"/><path id="o" d="M0 10.5558313L7.84866785 0.0196833545 7.28545311 10.5558313z"/><path id="q" d="M10.7133438 0L0.0122637865 11.6079278 21.4144239 11.6079278z"/></defs><g fill="none" fill-rule="evenodd"><circle cx="30" cy="30" fill="#FFFFFF" r="30"/><g transform="translate(12 16)"><mask fill="#fff" id="b"><use xlink:href="#a"/></mask><path fill="#FDB300" mask="url(#b)" d="M-0.457433291 33.0104905L36.4305042 33.0104905 36.4305042 -0.457433291 -0.457433291 -0.457433291z"/></g><g transform="translate(12 27.573)"><mask fill="#fff" id="d"><use xlink:href="#c"/></mask><path fill="#EA6C00" mask="url(#d)" d="M-0.457433291 21.4374282L18.4439665 21.4374282 18.4439665 -0.422567726 -0.457433291 -0.422567726z"/></g><g transform="translate(29.977 27.573)"><mask fill="#fff" id="f"><use xlink:href="#e"/></mask><path fill="#EA6C00" mask="url(#f)" d="M-0.448028463 21.4374282L18.4533713 21.4374282 18.4533713 -0.422567726 -0.448028463 -0.422567726z"/></g><g transform="translate(19.273 27.573)"><mask fill="#fff" id="h"><use xlink:href="#g"/></mask><path fill="#FDAD00" mask="url(#h)" d="M-0.445169504 21.4374282L21.8718572 21.4374282 21.8718572 -0.422567726 -0.445169504 -0.422567726z"/></g><g transform="translate(19.273 16)"><mask fill="#fff" id="j"><use xlink:href="#i"/></mask><path fill="#FDD231" mask="url(#j)" d="M-0.445169504 12.0653611L11.1707771 12.0653611 11.1707771 -0.457433291 -0.445169504 -0.457433291z"/></g><g transform="translate(29.977 16)"><mask fill="#fff" id="l"><use xlink:href="#k"/></mask><path fill="#FDD231" mask="url(#l)" d="M-0.448028463 12.0653611L11.1679182 12.0653611 11.1679182 -0.457433291 -0.448028463 -0.457433291z"/></g><g transform="translate(40.086 17.052)"><mask fill="#fff" id="n"><use xlink:href="#m"/></mask><path fill="#FDAD00" mask="url(#n)" d="M-0.419438882 11.0132645L8.34409555 11.0132645 8.34409555 -0.437749936 -0.419438882 -0.437749936z"/></g><g transform="translate(12 17.052)"><mask fill="#fff" id="p"><use xlink:href="#o"/></mask><path fill="#FDAD00" mask="url(#p)" d="M-0.457433291 11.0132645L8.30610114 11.0132645 8.30610114 -0.437749936 -0.457433291 -0.437749936z"/></g><g transform="translate(19.273 16)"><mask fill="#fff" id="r"><use xlink:href="#q"/></mask><path fill="#FEEEB7" mask="url(#r)" d="M-0.445169504 12.0653611L21.8718572 12.0653611 21.8718572 -0.457433291 -0.445169504 -0.457433291z"/></g></g></svg>