<svg xmlns="http://www.w3.org/2000/svg" viewBox="0 0 128 128"><g fill="none" fill-rule="evenodd"><path fill="#47B648" d="M0 0H128V128H0z"/><g fill="#FFF" fill-rule="nonzero"><path d="M59.0916335 68.3905341C58.7190894 67.9403955 58.3199351 67.5432143 57.9473911 67.0930756 57.1756927 66.2457558 56.3507737 65.3984359 55.5790753 64.5246373 54.5944947 63.4390088 53.5566934 62.4328164 52.598723 61.3471879 51.8270246 60.499868 50.9488851 59.8643781 50.017525 59.255367 47.9685327 57.8784722 45.7332685 57.6666423 43.4713939 58.4610046 42.6996955 58.7522708 41.9812177 59.0170583 41.2627399 59.4936757 40.2781592 60.0497294 39.2137477 60.7381767 38.4686596 61.6649328 38.0961155 62.062114 37.8566229 62.5652102 38.0961155 63.1477426 38.2025567 63.3860513 38.3622184 63.5449237 38.4952699 63.7037962 40.1983284 65.9280108 41.9546074 68.0727892 43.8173277 70.1116526 45.5203861 71.9916435 47.4895475 73.5803682 49.5385398 75.0102205 50.0973558 75.4074017 50.6827822 75.8045828 51.2948188 76.1488065 53.3438111 77.446265 55.6855165 78.3730211 58.0006116 78.7702023 59.2246849 79.008511 60.4753685 79.0614685 61.6994418 78.9290748 62.6840225 78.8761173 65.0523382 78.9820323 64.9991176 77.2344351 64.8926765 75.1955717 63.5089414 73.606847 62.3114784 72.1769947 61.2736772 70.8530575 60.1826553 69.6350352 59.0916335 68.3905341zM112.711279 59.2332304C112.443582 58.4812371 112.095576 57.6755299 111.720801 56.9235366 111.319256 56.1178294 110.837402 55.3121223 110.382318 54.5064152 108.936756 52.2504352 107.330577 50.4778795 105.081925 49.1350342 101.976644 47.3356216 98.1218133 46.4762007 94.7220663 47.3356216 91.0813924 48.3024702 89.0736678 50.6658778 87.6816455 54.5869859 87.1194826 56.1446863 86.4770107 57.9978128 86.2896231 59.6629409 86.0219265 61.865207 85.9148478 64.0943301 86.0754658 66.2965963 86.2896231 69.1702851 87.0659433 72.0708308 89.1272072 73.8433865 90.2783026 74.8102351 91.670325 75.3473732 93.0623473 75.6427992 95.1236112 76.0993665 96.9974875 76.0993665 99.0855211 75.7502268 101.842796 75.2936594 104.439453 74.5953799 107.06288 73.6285313 109.766616 72.6616827 112.443582 70.7548425 113.541138 67.6931554 114.585155 65.0611787 113.648217 61.892064 112.711279 59.2332304z" transform="matrix(-1 0 0 1 121 25)"/><path d="M96.059705,43.974783 C98.8310888,44.0287868 101.629379,44.9468512 104.18551,46.1889383 C106.311134,47.1610065 109.297771,48.2140804 110.91217,45.6759023 C111.638649,44.4608171 111.907715,42.8407035 111.961528,41.3826012 C112.069155,39.3034553 111.961528,37.1433038 111.504116,35.1181618 C110.777636,32.0399458 109.378491,29.1507432 107.764093,26.5315595 C106.418761,24.3984098 104.938896,22.3462659 103.324497,20.4561333 C88.4989395,2.95890596 67.1081618,-2.54948042 46.8474629,1.04177148 C32.7214776,3.52594574 16.389148,10.9514666 10.2006211,27.5846333 C7.6983037,34.3621087 5.08835975,44.1637963 5.08835975,44.1637963 C5.08835975,44.1637963 -1.58448663,53.2364327 0.352791348,59.1498475 C0.568044458,59.7168872 0.810204205,60.2569251 1.13308387,60.7159573 C2.18244278,62.4440785 3.58158799,63.6591638 5.35742614,64.4152168 C6.64894479,64.9282528 8.07499664,65.117266 9.42032857,64.9282528 C12.4876854,64.6312319 15.420509,63.0111183 17.7075733,60.7429592 C18.6493056,59.8248948 19.5372247,58.8258247 20.3175172,57.7997527 C21.0978097,56.8816884 21.7704757,55.8826183 22.4431417,54.8565463 C23.0081811,54.0464895 23.384874,54.9645539 23.6001271,55.5585955 C23.8153802,56.1526372 24.0037267,56.7736808 24.1651665,57.3677224 C24.4880462,58.5288039 24.5418595,60.04091 25.4028719,60.9049706 C26.0755379,61.553016 27.0710835,61.4720103 27.851376,61.2559952 C28.4702287,61.0939838 29.0890814,60.7429592 29.4119611,60.0949137 C29.8155607,59.3388607 29.6810275,58.2317831 29.4119611,57.47573 C29.0352681,56.3686524 29.6810275,55.6125993 30.6227598,55.3425804 C31.2954258,55.0995633 32.1833449,55.180569 32.8560108,55.3965842 C33.6363033,55.693605 34.1475295,56.6656732 34.4704091,57.47573 C34.5780357,57.8267546 34.6856623,58.1777793 34.8740087,58.3937944 C35.3852349,58.9608342 36.0309942,58.6908153 36.5422203,58.2857868 C38.6140315,56.8276846 40.5513095,55.0455596 42.9998136,54.3435103 C44.1567991,53.9924857 45.3945044,53.8844781 46.5514899,53.9924857 C48.3811413,54.1004933 50.2915127,54.5595255 51.8790043,55.6125993 C54.3275085,57.232713 56.4531329,58.8528266 59.27833,59.6088796 C61.1079814,60.1219156 62.9914461,60.4189365 64.8480042,60.6619535 C68.1844274,61.0669819 71.5746638,61.0669819 74.911087,60.9589744 C75.7451928,60.9049706 82.6871056,61.0129781 82.6871056,59.7438891 C82.6871056,57.2597149 83.5750247,54.8835482 84.5705703,52.6153891 C86.8845412,47.8630557 91.0012569,43.8667754 96.059705,43.974783 Z M18.0035463,48.565105 C15.8241086,48.565105 14.1020837,46.7559781 14.1020837,44.6228285 C14.1020837,42.4086731 15.8779218,40.6805519 18.0035463,40.6805519 C20.182984,40.6805519 21.9050089,42.4896788 21.9050089,44.6228285 C21.9050089,46.7559781 20.2098907,48.565105 18.0035463,48.565105 Z" transform="matrix(-1 0 0 1 121 25)"/></g></g></svg>