<svg xmlns="http://www.w3.org/2000/svg" viewBox="0 0 128 128"><defs><linearGradient id="a" x1="50%" x2="50%" y1="0%" y2="100%"><stop offset="0%" stop-color="#4D4D4D"/><stop offset="100%" stop-color="#444"/></linearGradient><linearGradient id="b" x1="52.274%" x2="56.08%" y1="69.542%" y2="26.578%"><stop offset="0%" stop-color="#FF9700"/><stop offset="53%" stop-color="#F48E00"/><stop offset="100%" stop-color="#CE6E00"/></linearGradient></defs><g fill="none"><path fill="url(#a)" d="M0 0H128V128H0z"/><path fill="url(#b)" d="M50,32.059112 C50,31.2824189 49.4374219,30.8345447 48.7470482,31.0570644 L1.25295176,46.4236842 C0.561189063,46.6476212 0,47.4597476 0,48.2350233 L0,63.9403834 C0,64.7170766 0.561189063,65.166368 1.25295176,64.942431 L48.7470482,49.5772285 C49.4374219,49.3532915 50,48.5411651 50,47.764472 L50,32.059112 Z" transform="translate(39 32)"/><path fill="#FF9800" d="M0,32.7626659 C0,33.5393124 0.561111113,34.35139 1.25277773,34.5753135 L48.7472223,49.942427 C49.4388889,50.1663505 50,49.7170861 50,48.9418568 L50,33.2360236 C50,32.4607943 49.4388889,31.6487167 48.7472223,31.424793 L1.25277773,16.0576797 C0.561111113,15.833756 0,16.2816033 0,17.0582499 L0,32.7626659 Z" transform="translate(39 32)"/><path fill="#FF9800" d="M50,1.0596166 C50,0.282923416 49.4374219,-0.166368096 48.7470482,0.057568999 L1.25295176,15.4227713 C0.561189063,15.6467085 0,16.4588347 0,17.2355279 L0,32.940888 C0,33.7175811 0.561189063,34.1654553 1.25295176,33.9429356 L48.7470482,18.5763159 C49.4374219,18.3523786 50,17.5402525 50,16.7649766 L50,1.0596166 Z" transform="translate(39 32)"/></g></svg>