<svg xmlns="http://www.w3.org/2000/svg" viewBox="0 0 512 512"><path fill="#2b3a42" d="M0 0H512V512H0z"/><path d="M256,111.2l128,72.4v144.9l-128,72.4l-128-72.4V183.6L256,111.2z" fill="#fff"/><path d="M367.9,327.8l-107.4,60.8v-47.3l67-36.8L367.9,327.8z M375.4,321.2V194l-39.3,22.7v81.8L375.4,321.2z M143.6,327.8L251,388.5v-47.3l-67-36.8L143.6,327.8z M136.4,321.2V194l39.3,22.7v81.8C175.6,298.5,136.4,321.2,136.4,321.2z M140.9,185.7l110.2-62.3v45.8l-70.7,38.9l-0.5,0.3L140.9,185.7L140.9,185.7z M370.7,185.7l-110.2-62.3v45.8l70.6,38.9l0.5,0.3	L370.7,185.7L370.7,185.7z" fill="#8ed6fb"/><path d="M251.1,331.5l-66.7-36.8V222l66.7,38.5V331.5z M260.6,331.5l66.7-36.7V222l-66.7,38.5L260.6,331.5L260.6,331.5z M188.8,213.5l67-36.8l66.9,36.8l-66.9,38.7L188.8,213.5z" fill="#1c78c0"/></svg>