<svg xmlns="http://www.w3.org/2000/svg" width="100%" height="100%" x="0px" y="0px" viewBox="0 0 128 128">
  <g fill="none" fill-rule="evenodd">
    <rect width="128" height="128" fill="#694199"/>
    <path fill="#FFF" fill-rule="nonzero" d="M84.665375,33 L43.334625,33 C37.6340353,33.0170232 33.0170232,37.6340353 33,43.334625 L33,84.665375 C33,90.35 37.65,95 43.334625,95 L84.665375,95 C90.35,95 95,90.35 95,84.665375 L95,43.334625 C95,37.65 90.35,33 84.665375,33 Z M79.2844179,75.9228792 C78.7688059,77.1631995 77.9462181,78.2546574 76.8926627,79.096401 C75.8037335,79.9832905 74.4231268,80.688946 72.7236194,81.2172237 C71.028001,81.7377892 69.013482,82 66.6761732,82 L50,82 L50,46 L67.6367643,46 C70.8957739,46 73.509204,46.7326478 75.4692766,48.2172237 C77.4332383,49.7017995 78.4171636,51.9267352 78.4171636,54.9267352 C78.4171636,56.7390746 77.9699248,58.2892031 77.0754472,59.5809769 C76.1809697,60.8534704 74.8975888,61.8560411 73.2330827,62.5501285 L73.2330827,62.6658098 C75.4498315,63.1285347 77.161006,64.1696658 78.2888255,65.7892031 C79.4166451,67.4087404 80,69.4524422 80,71.9203085 C80,73.3084833 79.7277677,74.6195373 79.2221934,75.8534704 L79.2844179,75.9228792 Z M71.3903971,67.4052198 C70.3491138,66.4608516 68.8806372,66 66.9887817,66 L56,66 L56,77 L67.0231097,77 C68.911151,77 70.387256,76.5164835 71.4247252,75.5381181 C72.473637,74.5710852 73,73.1885302 73,71.4093407 C72.9923716,69.6717033 72.4660085,68.3307005 71.4247252,67.4052198 L71.3903971,67.4052198 Z M70.4427935,60.7111801 C71.4848935,59.8454969 72,58.5993789 72,56.9767081 C72,55.1521739 71.5364042,53.859472 70.6012878,53.1180124 C69.6701337,52.3804348 68.3229321,52 66.559683,52 L56,52 L56,62 L66.5636454,62 C68.1168895,62 69.4165428,61.5613354 70.4467558,60.7111801 L70.4427935,60.7111801 Z"/>
  </g>
</svg>
