<svg xmlns="http://www.w3.org/2000/svg" width="100%" height="100%" viewBox="0 0 128 128" x="0px" y="0px">
  <g fill="none" fill-rule="evenodd">
    <rect width="128" height="128" fill="#C69"/>
    <path fill="#FFF" fill-rule="nonzero" d="M96.7022119,34.0808887 C95.9342119,31.0088887 93.7582119,28.4488887 90.4302119,26.6568887 C83.9022119,23.2008887 73.4062119,23.0728887 63.8062119,26.5288887 C58.0462119,28.5768887 47.1662119,33.1848887 38.9742119,40.7368887 C30.7822119,48.4168887 29.5022119,55.2008887 30.1422119,57.8888887 C31.5502119,65.3128887 39.3582119,70.5608887 45.5022119,74.9128887 C47.1662119,76.0648887 48.7022119,77.0888887 49.8542119,78.1128887 C46.3982119,79.9048887 37.0542119,85.1528887 34.4942119,90.6568887 C32.5742119,95.0088887 33.4702119,98.2088887 34.2382119,99.6168887 C35.0062119,101.280889 36.2862119,102.560889 37.5662119,102.944889 C38.8462119,103.328889 40.2542119,103.456889 41.6622119,103.456889 C47.1662119,103.456889 52.5422119,100.512889 55.8702119,95.5208887 C59.1982119,90.5288887 59.4542119,83.8728887 57.9182119,79.7768887 C60.0942119,79.2648887 62.3982119,79.2648887 64.9582119,79.5208887 C69.9502119,80.1608887 72.3822119,82.0808887 73.5342119,83.6168887 C74.8142119,85.2808887 75.0702119,86.9448887 74.9422119,87.9688887 C74.6862119,89.8888887 73.1502119,91.0408887 72.3822119,91.5528887 C71.7422119,91.9368887 71.2302119,92.3208887 71.3582119,93.0888887 C71.6142119,94.1128887 72.6382119,93.9848887 73.0222119,93.9848887 C74.1742119,93.7288887 78.2702119,91.6808887 78.5262119,87.0728887 C78.6542119,84.2568887 77.5022119,81.4408887 75.3262119,79.1368887 C72.5102119,76.1928887 68.2862119,74.6568887 63.4222119,74.7848887 C59.8382119,74.7848887 57.4062119,75.1688887 55.4862119,75.8088887 C55.4862119,75.8088887 55.3582119,75.6808887 55.3582119,75.6808887 C53.5662119,73.7608887 51.1342119,71.9688887 48.9582119,70.1768887 C43.8382119,66.3368887 39.1022119,62.6248887 39.3582119,57.1208887 C39.7422119,50.2088887 46.5262119,43.4248887 59.7102119,36.8968887 C71.3582119,31.1368887 80.8302119,30.8808887 85.8222119,32.6728887 C87.8702119,33.4408887 89.2782119,34.4648887 89.7902119,35.6168887 C90.8142119,37.7928887 90.4302119,40.6088887 88.6382119,43.6808887 C85.6942119,48.8008887 78.2702119,55.2008887 66.8782119,56.4808887 C59.9662119,57.2488887 57.0222119,54.1768887 56.8942119,54.0488887 C56.1262119,53.1528887 55.6142119,52.6408887 54.7182119,53.1528887 C53.6942119,53.6648887 54.2062119,55.0728887 54.4622119,55.5848887 C54.9742119,56.9928887 57.1502119,59.4248887 60.8622119,60.7048887 C63.8062119,61.7288887 71.3582119,62.3688887 80.7022119,58.7848887 C91.4542119,54.4328887 98.8782119,42.9128887 96.7022119,34.0808887 Z M52.5422119,88.6088887 C52.4142119,88.8648887 52.4142119,89.1208887 52.2862119,89.3768887 C52.1582119,89.6328887 52.0302119,89.8888887 52.0302119,90.1448887 C51.5182119,91.2968887 50.7502119,92.4488887 49.7262119,93.4728887 C46.7822119,96.6728887 42.8142119,97.5688887 41.5342119,96.8008887 C41.1502119,96.5448887 41.0222119,96.1608887 40.8942119,95.6488887 C40.6382119,94.1128887 41.5342119,91.0408887 44.2222119,88.3528887 C47.4222119,85.0248887 51.9022119,82.5928887 52.9262119,82.0808887 C53.3102119,84.3848887 53.1822119,86.5608887 52.5422119,88.6088887 Z"/>
  </g>
</svg>