<svg xmlns="http://www.w3.org/2000/svg" xmlns:xlink="http://www.w3.org/1999/xlink" width="100%" height="100%" x="0px" y="0px" viewBox="0 0 128 128">
  <defs>
    <polygon id="sketch-a" points="14.389 2.014 32.975 0 51.561 2.014 65.951 21.809 32.975 61.16 0 21.809"/>
    <polygon id="sketch-c" points="13.761 .065 33.975 38.963 0 .065"/>
    <polygon id="sketch-e" points="20.231 .065 .018 38.963 33.992 .065"/>
    <polygon id="sketch-g" points=".022 .065 38.935 .065 19.479 38.963"/>
    <polygon id="sketch-i" points="20.453 0 1.099 2.054 .023 22.249"/>
    <polygon id="sketch-k" points=".016 0 17.527 2.054 18.5 22.249"/>
    <polygon id="sketch-m" points="14.788 20.152 .071 .038 1.127 20.152"/>
    <polygon id="sketch-o" points="0 20.152 14.716 .038 13.66 20.152"/>
    <polygon id="sketch-q" points="19.479 0 .022 22.249 38.935 22.249"/>
  </defs>
  <g fill="none" fill-rule="evenodd">
    <rect width="128" height="128" fill="#130C33"/>
    <g transform="translate(30 33)">
      <mask id="sketch-b" fill="#fff">
        <use xlink:href="#sketch-a"/>
      </mask>
      <polygon fill="#FDB300" fill-rule="nonzero" points="-.839 62.02 66.789 62.02 66.789 -.859 -.839 -.859" mask="url(#sketch-b)"/>
      <g transform="translate(0 22)">
        <mask id="sketch-d" fill="#fff">
          <use xlink:href="#sketch-c"/>
        </mask>
        <polygon fill="#EA6C00" fill-rule="nonzero" points="-.864 39.812 34.839 39.812 34.839 -.785 -.864 -.785" mask="url(#sketch-d)"/>
      </g>
      <g transform="translate(34 22)">
        <mask id="sketch-f" fill="#fff">
          <use xlink:href="#sketch-e"/>
        </mask>
        <polygon fill="#EA6C00" fill-rule="nonzero" points="-.846 39.812 34.856 39.812 34.856 -.785 -.846 -.785" mask="url(#sketch-f)"/>
      </g>
      <g transform="translate(13 22)">
        <mask id="sketch-h" fill="#fff">
          <use xlink:href="#sketch-g"/>
        </mask>
        <polygon fill="#FDAD00" fill-rule="nonzero" points="-.809 39.812 39.767 39.812 39.767 -.785 -.809 -.785" mask="url(#sketch-h)"/>
      </g>
      <g transform="translate(13)">
        <mask id="sketch-j" fill="#fff">
          <use xlink:href="#sketch-i"/>
        </mask>
        <polygon fill="#FDD231" fill-rule="nonzero" points="-.85 23.125 21.326 23.125 21.326 -.877 -.85 -.877" mask="url(#sketch-j)"/>
      </g>
      <g transform="translate(34)">
        <mask id="sketch-l" fill="#fff">
          <use xlink:href="#sketch-k"/>
        </mask>
        <polygon fill="#FDD231" fill-rule="nonzero" points="-.774 23.125 19.29 23.125 19.29 -.877 -.774 -.877" mask="url(#sketch-l)"/>
      </g>
      <g transform="translate(52 2)">
        <mask id="sketch-n" fill="#fff">
          <use xlink:href="#sketch-m"/>
        </mask>
        <polygon fill="#FDAD00" fill-rule="nonzero" points="-.786 21.025 15.645 21.025 15.645 -.836 -.786 -.836" mask="url(#sketch-n)"/>
      </g>
      <g transform="translate(0 2)">
        <mask id="sketch-p" fill="#fff">
          <use xlink:href="#sketch-o"/>
        </mask>
        <polygon fill="#FDAD00" fill-rule="nonzero" points="-.858 21.025 15.574 21.025 15.574 -.836 -.858 -.836" mask="url(#sketch-p)"/>
      </g>
      <g transform="translate(13)">
        <mask id="sketch-r" fill="#fff">
          <use xlink:href="#sketch-q"/>
        </mask>
        <polygon fill="#FEEEB7" fill-rule="nonzero" points="-.809 23.125 39.767 23.125 39.767 -.877 -.809 -.877" mask="url(#sketch-r)"/>
      </g>
    </g>
  </g>
</svg>
