<svg xmlns="http://www.w3.org/2000/svg" width="100%" height="100%" x="0px" y="0px" viewBox="0 0 128 128">
  <g fill="none" fill-rule="evenodd">
    <rect width="128" height="128" fill="#E1F6FF"/>
    <g fill-rule="nonzero" transform="translate(27 35)">
      <path fill="#FD6D0B" d="M39.8,51.7 C39.6,51.1 39.4,50.4 39.2,49.8 C37.6,44.6 36.4,37.5 35.7,30 C34.6,16.2 35.7,1.3 40,0.9 C42.4,0.7 44.3,5.3 45.5,9.1 C47.1,14.3 48.3,21.4 49,28.9 C50.1,42.7 49,57.6 44.7,58 C42.6,58.1 40.9,55 39.8,51.7 Z M43.9,7.5 C42.4,3.3 40.9,1.8 40,1.9 C37.3,2.1 35.3,13.7 36.7,29.9 C37.3,37.4 38.5,44.3 40.1,49.5 C41.8,55.2 43.6,57.1 44.6,57 C47.3,56.8 49.3,45.2 47.9,29 C47.3,21.5 46.1,14.6 44.5,9.4 C44.3,8.7 44.1,8 43.9,7.5 Z"/>
      <path fill="#FD6D0B" d="M26.2,13.8 C25,10.5 24.3,7 26,5.8 C29.5,3.3 39.9,14.1 47.8,25.5 C52.1,31.7 55.6,37.9 57.7,43 C59.2,46.7 60.7,51.5 58.7,52.8 C55.2,55.3 44.8,44.5 36.9,33.1 C32.5,27 29,20.8 26.9,15.7 C26.6,15.1 26.4,14.5 26.2,13.8 Z M57.5,45.3 C57.3,44.7 57.1,44.1 56.8,43.4 C54.7,38.4 51.2,32.3 47,26.1 C37.7,12.7 28.8,5.1 26.6,6.6 C25.8,7.2 25.7,9.8 27.9,15.2 C30,20.2 33.5,26.3 37.7,32.5 C47,45.9 55.9,53.5 58.1,52 C58.8,51.6 59,49.5 57.5,45.3 Z"/>
      <polygon fill="#FFBE22" points="25.8 35.5 8.2 41.8 7.9 53.2 18.6 49.3 29.4 45.4"/>
      <polygon fill="#F89920" points="22.2 25.5 11.4 29.3 .7 33.2 8.2 41.8 25.8 35.5"/>
      <path fill="#F0670B" d="M73.8,18.2 C76.2,24.7 64.2,35 47.1,41.2 C30,47.3 14.2,47 11.8,40.5 C15.2,50.1 31.9,52.9 49,46.7 C66.2,40.5 77.3,27.8 73.8,18.2 Z"/>
      <path fill="#F89920" d="M47.1,41.2 C64.2,35 76.2,24.8 73.8,18.2 L11.8,40.5 C14.2,47 30,47.3 47.1,41.2 Z"/>
      <path fill="#FFD00E" d="M38.6,17.5 C55.7,11.3 71.5,11.7 73.9,18.2 C70.5,8.6 53.8,5.8 36.7,12 C19.6,18.2 8.4,30.9 11.8,40.5 C9.5,33.9 21.4,23.6 38.6,17.5 Z"/>
      <path fill="#FFBE22" d="M38.6,17.5 C21.5,23.7 9.5,33.9 11.9,40.5 L73.9,18.2 C71.5,11.6 55.7,11.3 38.6,17.5 Z"/>
      <path fill="#FD6D0B" d="M40.1,49.4 C38.8,45.1 37.7,39.5 37,33.4 C44.9,44.7 55.1,55.3 58.6,52.9 L58,52.1 C55.8,53.6 46.9,46 37.6,32.6 C37.3,32.2 37,31.8 36.7,31.4 C36.7,30.9 36.6,30.4 36.6,29.9 C35.3,13.7 37.3,2.1 39.9,1.9 L39.8,0.9 C35.5,1.3 34.4,15.9 35.5,29.7 C32.1,24.6 29.4,19.6 27.7,15.4 C25.4,9.9 25.5,7.3 26.4,6.8 L25.8,6 C24.1,7.2 24.9,10.7 26,14 C26.2,14.6 26.5,15.3 26.7,15.9 C28.6,20.6 31.8,26.2 35.6,31.9 C36.3,38.8 37.4,45.1 38.9,49.9 C39.1,50.5 39.3,51.2 39.5,51.8 C40.7,55.1 42.4,58.2 44.4,58.1 L44.3,57.1 C43.5,57 41.8,55.1 40.1,49.4 Z"/>
    </g>
  </g>
</svg>
